<?xml version="1.0" standalone="no"?><!DOCTYPE svg PUBLIC "-//W3C//DTD SVG 1.1//EN" "http://www.w3.org/Graphics/SVG/1.1/DTD/svg11.dtd"><svg t="1696857873324" class="icon" viewBox="0 0 1024 1024" version="1.1" xmlns="http://www.w3.org/2000/svg" p-id="2824" xmlns:xlink="http://www.w3.org/1999/xlink" width="200" height="200"><path d="M510.14 512.75m-446.81 0a446.81 446.81 0 1 0 893.62 0 446.81 446.81 0 1 0-893.62 0Z" fill="#F2DE97" p-id="2825"></path><path d="M108.98 709.66c72.79 148.02 225.07 249.9 401.16 249.9S838.5 857.68 911.3 709.66H108.98z" fill="#609374" p-id="2826"></path><path d="M513.67 168.62h-7.06c-12.47 71.15-56.98 131.25-118.11 164.92h243.29c-61.14-33.67-105.65-93.77-118.12-164.92z" fill="#B03E23" p-id="2827"></path><path d="M310.85 371.03a199.29 52.24 0 1 0 398.58 0 199.29 52.24 0 1 0-398.58 0Z" fill="#367A6B" p-id="2828"></path><path d="M510.14 348.97c-89.43 0-161.92 13.89-161.92 31.02V590.2h323.85V379.98c-0.01-17.13-72.5-31.01-161.93-31.01z" fill="#B03E23" p-id="2829"></path><path d="M274.61 483.42a235.53 61.74 0 1 0 471.06 0 235.53 61.74 0 1 0-471.06 0Z" fill="#367A6B" p-id="2830"></path><path d="M510.14 457.35c-105.69 0-191.36 16.41-191.36 36.66v248.43H701.5V494.01c0-20.25-85.67-36.66-191.36-36.66z" fill="#B03E23" p-id="2831"></path><path d="M220.26 612.3a289.88 75.99 0 1 0 579.76 0 289.88 75.99 0 1 0-579.76 0Z" fill="#367A6B" p-id="2832"></path><path d="M510.14 576.06c-130.08 0-235.53 20.2-235.53 45.12v233.29h471.05V621.18c0-24.92-105.44-45.12-235.52-45.12z" fill="#B03E23" p-id="2833"></path><path d="M537.31 854.47h-54.35V728.52c0-15.01 12.17-27.18 27.18-27.18s27.18 12.17 27.18 27.18v125.95zM444.27 854.47h-43.48v-98.78c0-12.01 9.73-21.74 21.74-21.74 12.01 0 21.74 9.73 21.74 21.74v98.78zM619.49 854.47h-43.48v-98.78c0-12.01 9.73-21.74 21.74-21.74 12.01 0 21.74 9.73 21.74 21.74v98.78z" fill="#F0BE1D" p-id="2834"></path><path d="M510.14 175.61m-16.17 0a16.17 16.17 0 1 0 32.34 0 16.17 16.17 0 1 0-32.34 0Z" fill="#F0BE1D" p-id="2835"></path><path d="M763.2 259.32h-26.74c2.99-1.08 5.14-3.92 5.14-7.28a7.76 7.76 0 0 0-7.76-7.76H703.5c-4.29 0-7.77 3.48-7.77 7.76 0 4.29 3.48 7.76 7.77 7.76h10.73c-2.99 1.08-5.14 3.92-5.14 7.28a7.76 7.76 0 0 0 7.76 7.76h46.35a7.76 7.76 0 0 0 7.76-7.76c0-4.29-3.47-7.76-7.76-7.76zM869.39 418.89h-26.74c2.99-1.08 5.14-3.92 5.14-7.28a7.76 7.76 0 0 0-7.76-7.76H809.7c-4.29 0-7.77 3.48-7.77 7.76 0 4.29 3.48 7.76 7.77 7.76h10.73c-2.99 1.08-5.14 3.92-5.14 7.28a7.76 7.76 0 0 0 7.76 7.76h46.35a7.76 7.76 0 0 0 7.76-7.76c0-4.28-3.48-7.76-7.77-7.76zM264.5 320.35h-26.74c2.99-1.08 5.14-3.92 5.14-7.28a7.76 7.76 0 0 0-7.76-7.76h-30.33a7.76 7.76 0 0 0 0 15.52h10.73c-2.99 1.08-5.14 3.92-5.14 7.28a7.76 7.76 0 0 0 7.76 7.76h46.35a7.76 7.76 0 0 0 7.76-7.76c0-4.28-3.48-7.76-7.77-7.76z" fill="#ECF1C9" p-id="2836"></path></svg>